HIERARCHY
ROOT root
{
	OFFSET	0	13.1	24.9
	CHANNELS 6  Xposition Yposition Zposition Xrotation Yrotation Zrotation
	JOINT spine_1
	{
		OFFSET	0	9.99999	0
		CHANNELS 3  Xrotation Yrotation Zrotation
		JOINT spine_2
		{
			OFFSET	0	112	-10
			CHANNELS 3  Xrotation Yrotation Zrotation
			JOINT spine_3
			{
				OFFSET	0	206.5	19.3
				CHANNELS 3  Xrotation Yrotation Zrotation
				JOINT spine_4
				{
					OFFSET	0	110.4	14.6
					CHANNELS 3  Xrotation Yrotation Zrotation
					JOINT neck_1
					{
						OFFSET	0	71.8	-50.3
						CHANNELS 3  Xrotation Yrotation Zrotation
						JOINT neck_2
						{
							OFFSET	0	86.2	-25.8
							CHANNELS 3  Xrotation Yrotation Zrotation
							JOINT head_ee
							{
								OFFSET	0	179.8	-8.7
								CHANNELS 3  Xrotation Yrotation Zrotation
								End Site
								{
									OFFSET	1	0	0
								}
							}
						}
					}
					JOINT left_clavicle
					{
						OFFSET	-43.2	22.4	-70.8
						CHANNELS 3  Xrotation Yrotation Zrotation
						JOINT left_shoulder
						{
							OFFSET	-93.9	-5.79999	48.7
							CHANNELS 3  Xrotation Yrotation Zrotation
							JOINT left_elbow
							{
								OFFSET	-291.4	-30.8	15.2
								CHANNELS 3  Xrotation Yrotation Zrotation
								JOINT left_lowarm_twist
								{
									OFFSET	-110.7	-3.89999	13.6
									CHANNELS 3  Xrotation Yrotation Zrotation
									JOINT left_hand
									{
										OFFSET	-110.7	-3.89999	13.6
										CHANNELS 3  Xrotation Yrotation Zrotation
										JOINT left_ee
										{
											OFFSET	-80.8	-5.10001	12.1
											CHANNELS 3  Xrotation Yrotation Zrotation
											End Site
											{
												OFFSET	1	0	0
											}
										}
									}
								}
							}
						}
					}
					JOINT right_clavicle
					{
						OFFSET	43.2	22.4	-70.8
						CHANNELS 3  Xrotation Yrotation Zrotation
						JOINT right_shoulder
						{
							OFFSET	93.9	-5.79999	48.7
							CHANNELS 3  Xrotation Yrotation Zrotation
							JOINT right_elbow
							{
								OFFSET	291.4	-30.8	15.2
								CHANNELS 3  Xrotation Yrotation Zrotation
								JOINT right_lowarm_twist
								{
									OFFSET	110.7	-3.89999	13.6
									CHANNELS 3  Xrotation Yrotation Zrotation
									JOINT right_hand
									{
										OFFSET	110.7	-3.89999	13.6
										CHANNELS 3  Xrotation Yrotation Zrotation
										JOINT right_ee
										{
											OFFSET	80.8	-5.10001	12.1
											CHANNELS 3  Xrotation Yrotation Zrotation
											End Site
											{
												OFFSET	1	0	0
											}
										}
									}
								}
							}
						}
					}
				}
			}
		}
	}
	JOINT left_hip
	{
		OFFSET	-82.8	-127.5	0.300001
		CHANNELS 3  Xrotation Yrotation Zrotation
		JOINT left_knee
		{
			OFFSET	-28.2	-396.7	2.2
			CHANNELS 3  Xrotation Yrotation Zrotation
			JOINT left_ankle
			{
				OFFSET	-11.7	-411.3	35.4
				CHANNELS 3  Xrotation Yrotation Zrotation
				JOINT left_toes
				{
					OFFSET	0	-60	-88.6
					CHANNELS 3  Xrotation Yrotation Zrotation
					JOINT left_foot_ee
					{
						OFFSET	-22.5	-16.5	-42.2
						CHANNELS 3  Xrotation Yrotation Zrotation
						End Site
						{
							OFFSET	1	0	0
						}
					}
				}
			}
		}
	}
	JOINT right_hip
	{
		OFFSET	82.8	-127.5	0.300001
		CHANNELS 3  Xrotation Yrotation Zrotation
		JOINT right_knee
		{
			OFFSET	28.2	-396.7	2.2
			CHANNELS 3  Xrotation Yrotation Zrotation
			JOINT right_ankle
			{
				OFFSET	11.7	-411.3	35.4
				CHANNELS 3  Xrotation Yrotation Zrotation
				JOINT right_toes
				{
					OFFSET	0	-60	-88.6
					CHANNELS 3  Xrotation Yrotation Zrotation
					JOINT right_foot_ee
					{
						OFFSET	22.5	-16.5	-42.2
						CHANNELS 3  Xrotation Yrotation Zrotation
						End Site
						{
							OFFSET	1	0	0
						}
					}
				}
			}
		}
	}
}
MOTION
Frames: 16
Frame Time: 0.02
2415.24 732.907 -534.086 161.118 -73.6025 166.407 -0.643804 -0.127639 -1.48752 -0.642573 -0.0327362 -1.49263 -0.640944 0.298155 -1.46292 -0.643925 0.0633989 -1.49164 -13.9816 6.83689 6.21298 -13.935 9.24977 8.03232 -0.0 0.0 -0.0 3.57484 12.8227 7.44748 2.08912 -28.3519 57.5156 1.39254 -34.5969 0.433706 -28.4025 -1.81045 3.10962 -1.46535 21.7092 0.127758 -0.0 0.0 -0.0 3.59058 9.44026 -6.29642 -8.80979 19.161 -67.5982 0.448495 12.5262 -0.0492225 43.1855 0.525237 5.36293 1.03917 -2.6049 -8.00726 0.0 0.0 0.0 -4.47537 19.7013 -1.30197 4.95416 -0.23548 -0.723371 30.3038 11.2134 -3.936 -18.582 0.0 0.0 -0.0 0.0 -0.0 24.6443 26.4028 -18.4959 -56.538 1.83798 -8.13311 29.6494 -26.4935 4.10433 -11.9238 0.0 0.0 0.0 0.0 0.0 
2435.01 736.367 -537.465 160.702 -73.7245 166.311 -0.484469 -0.183033 -1.58684 -0.483072 -0.0816998 -1.59527 -0.479928 0.26867 -1.57461 -0.483388 0.0166502 -1.59728 -14.3762 7.04722 6.64468 -14.3198 9.44581 8.53908 -0.0 0.0 -0.0 2.54232 13.1603 5.74538 4.45494 -28.952 60.0566 1.5225 -37.0212 0.50976 -30.3831 -1.9912 3.28799 -1.80685 17.868 -3.69586 -0.0 0.0 -0.0 3.18872 8.55745 -5.53549 -9.92401 18.1766 -67.9973 0.270275 7.62595 -0.0180131 43.9747 0.57198 5.45243 0.995696 -2.10337 -7.51541 0.0 0.0 0.0 -5.92963 18.6875 -1.30645 5.52632 -0.266692 -0.80556 29.3128 11.6544 -3.83133 -18.1728 0.0 0.0 -0.0 0.0 -0.0 23.2769 27.3951 -18.7616 -49.8597 1.20997 -7.31866 25.0896 -27.711 3.57912 -12.0912 0.0 0.0 0.0 0.0 0.0 
2451.34 738.075 -538.682 161.224 -73.1025 167.092 -0.460852 -0.19247 -1.7419 -0.459167 -0.0812552 -1.75062 -0.455656 0.302315 -1.72624 -0.459814 0.0259372 -1.75231 -14.5993 7.2083 6.91982 -14.5367 9.6214 8.86916 -0.0 0.0 -0.0 1.67665 13.4231 4.33513 6.65221 -29.4179 61.5593 1.62018 -38.7471 0.569747 -31.741 -2.11865 3.40664 -2.05302 15.3301 -6.43714 -0.0 0.0 -0.0 2.92433 8.01201 -5.03631 -10.5599 17.5061 -68.5433 0.163914 4.64226 -0.00664406 44.6473 0.612793 5.52821 0.911471 -1.81975 -6.83732 0.0 0.0 0.0 -7.5612 18.9556 -0.737378 5.95652 -0.290701 -0.867154 29.5081 12.4001 -3.85775 -17.732 0.0 0.0 -0.0 0.0 -0.0 25.3604 26.6734 -19.1489 -43.5645 0.708973 -6.48993 21.7038 -28.6729 3.16303 -12.3052 0.0 0.0 0.0 0.0 0.0 
2461.55 736.561 -540.597 158.753 -73.0341 164.518 -0.458485 -0.306738 -1.83562 -0.45663 -0.189331 -1.85141 -0.449266 0.21856 -1.84818 -0.454025 -0.0760171 -1.85951 -16.5404 7.20752 7.30695 -16.481 9.68883 9.41116 -0.0 0.0 -0.0 1.21946 13.5741 3.59713 9.10186 -29.9329 62.7187 1.66914 -39.5822 0.600672 -32.7124 -2.21155 3.48967 -2.23001 13.5204 -8.4448 -0.0 0.0 -0.0 2.70473 8.3464 -4.55833 -11.8529 16.5606 -68.5274 0.199604 5.64709 -0.00984447 45.7985 0.684704 5.65678 0.76168 -2.66708 -6.17835 0.0 0.0 0.0 -9.47034 19.3897 -0.573732 6.42491 -0.317367 -0.934012 32.0949 13.7467 -4.14636 -17.1937 0.0 0.0 -0.0 0.0 -0.0 25.0611 25.5801 -17.762 -39.1729 0.414989 -5.88216 16.8047 -28.1172 2.48755 -12.931 0.0 0.0 0.0 0.0 0.0 
2475.58 735.394 -541.949 157.819 -72.7808 163.505 -0.38947 -0.400038 -1.93411 -0.387431 -0.276179 -1.95563 -0.376585 0.153967 -1.96902 -0.38196 -0.158874 -1.96863 -16.9578 7.29511 7.46658 -16.8985 9.83115 9.63254 -0.0 0.0 -0.0 0.982229 13.8566 3.23432 10.9202 -30.3819 63.5046 1.7113 -40.2854 0.627731 -33.3813 -2.27633 3.54593 -2.35319 12.2217 -9.88273 -0.0 0.0 -0.0 2.33349 7.87688 -3.83824 -13.4502 16.0133 -68.2596 0.202198 5.71997 -0.0101014 46.3054 0.717187 5.71294 0.590247 -3.27831 -5.28472 0.0 0.0 0.0 -11.1378 19.9686 0.338439 6.69363 -0.332914 -0.972273 33.3834 14.9107 -4.29308 -17.3331 0.0 0.0 -0.0 0.0 -0.0 25.7334 24.6014 -17.2944 -35.6807 0.215085 -5.38419 13.5063 -27.8483 2.01934 -13.3581 0.0 0.0 0.0 0.0 0.0 
2486.68 734.103 -547.238 157.55 -72.3372 163.326 -0.376004 -0.441639 -2.03586 -0.373752 -0.311225 -2.05982 -0.360979 0.141742 -2.07837 -0.366958 -0.188204 -2.07468 -17.661 7.18665 6.9152 -17.6364 10.0319 9.15338 -0.0 0.0 -0.0 1.09223 13.6437 3.39489 12.302 -30.1924 63.6821 1.73995 -40.7551 0.646349 -33.9205 -2.32903 3.59073 -2.45753 11.3497 -10.9981 -0.0 0.0 -0.0 2.02887 7.90385 -3.21277 -14.1067 15.452 -67.5942 0.221265 6.25527 -0.0120903 46.9473 0.759038 5.78364 0.492205 -3.70302 -4.80657 0.0 0.0 0.0 -12.0907 20.3083 0.984031 6.6749 -0.331825 -0.969609 35.1638 15.0269 -4.4749 -17.1486 0.0 0.0 -0.0 0.0 -0.0 26.341 24.6772 -16.4082 -33.3166 0.0971886 -5.04071 11.1131 -27.7349 1.67342 -13.3642 0.0 0.0 0.0 0.0 0.0 
2497.75 731.32 -548.622 158.742 -70.8361 164.494 -0.310463 -0.394634 -2.17172 -0.307875 -0.255676 -2.19241 -0.29642 0.222237 -2.19605 -0.303128 -0.127291 -2.20359 -18.4375 7.351 7.82202 -18.3808 9.97275 10.1375 -0.0 0.0 -0.0 0.6175 13.6896 2.623 13.5901 -30.7921 64.4651 1.77979 -41.3975 0.67253 -34.2342 -2.35987 3.61656 -2.54304 10.7039 -11.8845 -0.0 0.0 -0.0 1.85874 7.88927 -2.86622 -14.6072 15.1298 -67.5907 0.221751 6.26889 -0.0121433 47.1857 0.774783 5.80978 0.424194 -4.03234 -4.49016 0.0 0.0 0.0 -13.2057 20.3894 1.11881 6.52467 -0.323118 -0.948224 35.7954 16.0304 -4.55142 -17.0496 0.0 0.0 -0.0 0.0 -0.0 26.4512 23.7437 -15.8745 -31.0689 -0.00164127 -4.71 9.57866 -27.376 1.44599 -13.6449 0.0 0.0 0.0 0.0 0.0 
2512.65 728.425 -553.157 158.814 -70.6212 164.083 -0.273771 -0.337031 -2.03048 -0.271501 -0.207171 -2.04781 -0.262692 0.237289 -2.04454 -0.268515 -0.0885152 -2.05635 -18.0769 7.52353 8.21395 -17.9997 10.0371 10.5271 -0.0 0.0 -0.0 1.07079 13.4997 3.34699 14.6123 -30.9373 64.747 1.86004 -42.6535 0.726252 -34.0445 -2.34121 3.60096 -2.69488 11.4194 -12.5052 -0.0 0.0 -0.0 1.71702 7.60206 -2.60398 -15.5771 14.7328 -67.2964 0.201184 5.69149 -0.0100005 47.4455 0.792061 5.83819 0.326801 -4.07591 -3.86414 0.0 0.0 0.0 -13.7098 17.3027 1.4532 5.00889 -0.23843 -0.731247 36.568 16.3507 -4.63208 -16.9303 0.0 0.0 -0.0 0.0 -0.0 27.0515 23.7417 -15.2614 -29.3593 -0.0680734 -4.45604 11.6326 -27.0513 1.74134 -14.0255 0.0 0.0 0.0 0.0 0.0 
2523.03 726.056 -552.197 157.274 -70.9101 162.743 -0.230349 -0.471121 -2.09514 -0.22797 -0.336879 -2.12085 -0.213906 0.124382 -2.14383 -0.220255 -0.215678 -2.13658 -18.9861 7.29799 7.89334 -18.9306 9.91745 10.2423 -0.0 0.0 -0.0 1.06846 13.6783 3.35907 15.8771 -30.9611 64.6486 1.90788 -43.379 0.75889 -34.7146 -2.40739 3.6558 -2.62351 9.95661 -12.7963 -0.0 0.0 -0.0 1.46836 7.55433 -2.10116 -16.0509 14.4899 -67.4739 0.209109 5.91411 -0.0108017 47.5524 0.799213 5.84986 0.335882 -4.48938 -4.09282 0.0 0.0 0.0 -14.7947 20.904 1.88871 5.95148 -0.290417 -0.866434 37.3644 16.2264 -4.70707 -16.8952 0.0 0.0 -0.0 0.0 -0.0 27.581 24.138 -15.3915 -26.1926 -0.170969 -3.981 8.26495 -26.7586 1.24789 -13.9713 0.0 0.0 0.0 0.0 0.0 
2537.87 720.313 -556.398 158.674 -69.6009 163.92 -0.186084 -0.260771 -2.10786 -0.183621 -0.126145 -2.12017 -0.177594 0.328907 -2.09831 -0.183738 -0.00653223 -2.12391 -18.8074 7.25565 7.83808 -18.7506 9.83737 10.1548 -0.0 0.0 -0.0 1.17783 13.5339 3.52546 16.3354 -30.7612 65.0861 1.99543 -44.663 0.819735 -34.8246 -2.41833 3.66473 -2.70802 9.80476 -13.4325 -0.0 0.0 -0.0 1.29697 7.42725 -1.76428 -16.2158 14.3702 -67.5542 0.207213 5.86086 -0.0106073 47.8329 0.818071 5.88041 0.325833 -4.45409 -4.01213 0.0 0.0 0.0 -16.1443 20.9942 3.18088 4.21646 -0.196456 -0.61696 40.0141 15.1449 -4.93612 -16.4697 0.0 0.0 -0.0 0.0 -0.0 28.4336 24.901 -15.435 -20.1866 -0.293374 -3.0679 8.69537 -25.2942 1.30035 -14.5508 0.0 0.0 0.0 0.0 0.0 
2552.57 714.792 -557.021 160.161 -68.6581 165.144 -0.153117 -0.061701 -2.10704 -0.15065 0.0724699 -2.10669 -0.152204 0.519293 -2.043 -0.157978 0.190197 -2.09934 -18.8638 7.18417 7.76701 -18.8085 9.74556 10.0669 -0.0 0.0 -0.0 1.53676 13.7555 4.13106 17.1988 -30.6404 65.6488 2.08489 -45.9186 0.883315 -34.9292 -2.42873 3.6732 -2.7839 9.72749 -13.9751 -0.0 0.0 -0.0 1.05082 7.34726 -1.27067 -16.5527 14.2653 -67.859 0.199906 5.65557 -0.0098742 47.9592 0.826613 5.89414 0.306926 -4.46738 -3.89281 0.0 0.0 0.0 -16.8773 20.9024 4.00784 2.92638 -0.131523 -0.429719 41.9888 14.1675 -5.09416 -16.1431 0.0 0.0 -0.0 0.0 -0.0 28.5029 25.7533 -15.4106 -15.6368 -0.322079 -2.37059 8.55238 -23.9144 1.27036 -15.0134 0.0 0.0 0.0 0.0 0.0 
2566.17 710.222 -555.636 161.126 -68.0554 165.831 -0.159482 0.0670445 -2.12369 -0.156995 0.202014 -2.11513 -0.163481 0.64814 -2.02352 -0.169051 0.320503 -2.10045 -18.839 7.12774 7.61139 -18.7897 9.71502 9.89818 -0.0 0.0 -0.0 1.71197 13.8186 4.42208 17.6489 -30.2064 65.701 2.18535 -47.264 0.956302 -35.0012 -2.43591 3.67902 -2.8391 9.63259 -14.3913 -0.0 0.0 -0.0 0.864845 7.46011 -0.879501 -16.8287 14.1782 -67.9292 0.198964 5.6291 -0.00978162 48.0736 0.834376 5.90656 0.31174 -4.47904 -3.92932 0.0 0.0 0.0 -17.2902 21.0065 4.55574 1.94828 -0.0851184 -0.28683 42.3209 13.6191 -5.11443 -15.907 0.0 0.0 -0.0 0.0 -0.0 28.5948 26.4721 -15.0582 -11.9236 -0.304443 -1.80124 8.86343 -23.0568 1.30988 -15.282 0.0 0.0 0.0 0.0 0.0 
2580.54 706.604 -554.168 160.879 -68.9142 165.294 -0.198919 -0.154029 -2.11364 -0.196434 -0.0192509 -2.11915 -0.194469 0.433804 -2.07439 -0.20046 0.100826 -2.11684 -17.3167 6.75421 7.55905 -17.236 8.79347 9.55359 -0.0 0.0 -0.0 1.78769 16.1477 4.70732 17.4037 -29.4144 65.7544 2.42964 -50.2705 1.14008 -35.1112 -2.44688 3.68789 -2.96125 9.1092 -15.4834 -0.0 0.0 -0.0 0.849453 8.16067 -0.773073 -17.3628 13.6186 -68.4473 0.277164 7.81794 -0.0189388 47.8847 0.821575 5.88605 0.240597 -6.41657 -4.25024 0.0 0.0 0.0 -18.0079 19.3655 4.53382 2.93126 -0.131761 -0.430429 41.2298 10.7873 -4.98947 -15.1879 0.0 0.0 -0.0 0.0 -0.0 28.1962 27.5635 -13.9606 -8.26425 -0.25102 -1.24238 9.49667 -19.2386 1.37898 -14.8368 0.0 0.0 0.0 0.0 0.0 
2594.77 701.947 -550.205 161.523 -69.5317 165.806 -0.371214 -0.214649 -2.14871 -0.368649 -0.0775191 -2.158 -0.364253 0.391444 -2.12364 -0.370543 0.0512238 -2.15879 -18.2305 6.81656 7.764 -18.1512 8.94141 9.8541 -0.0 0.0 -0.0 1.76332 17.9962 4.79284 17.7254 -28.9002 66.3628 2.68918 -53.0961 1.34378 -35.0796 -2.44372 3.68535 -2.83342 8.51483 -14.94 -0.0 0.0 -0.0 0.849351 8.38485 -0.74883 -16.9605 13.4037 -69.3239 0.268608 7.57945 -0.0177926 48.7899 0.883547 5.98396 0.29139 -5.43258 -4.18374 0.0 0.0 0.0 -18.3915 19.7281 4.7752 3.4339 -0.156563 -0.50355 41.0065 10.2076 -4.9654 -14.865 0.0 0.0 -0.0 0.0 -0.0 28.5664 28.278 -13.3039 -4.46945 -0.158045 -0.667545 8.79159 -17.3857 1.27191 -15.4898 0.0 0.0 0.0 0.0 0.0 
2608.95 698.246 -548.221 162.299 -70.1174 166.264 -0.307804 -0.355485 -2.10009 -0.305377 -0.221161 -2.11844 -0.295667 0.240007 -2.11639 -0.301904 -0.0971712 -2.12773 -17.6669 7.21088 8.34227 -17.5632 9.29681 10.4837 -0.0 0.0 -0.0 1.3891 19.2402 4.31526 17.0431 -28.5368 66.8823 3.02955 -56.3115 1.62169 -35.2737 -2.46312 3.70097 -2.68159 7.66047 -14.3644 -0.0 0.0 -0.0 0.854509 8.46809 -0.750493 -17.3844 13.3265 -70.1652 0.288012 8.11993 -0.0204427 49.1429 0.908133 6.02188 0.358575 -5.90209 -4.81535 0.0 0.0 0.0 -19.0791 19.0777 5.09295 3.90202 -0.18024 -0.571455 41.202 8.5835 -4.9709 -14.2091 0.0 0.0 -0.0 0.0 -0.0 28.4325 29.129 -12.555 -2.33982 -0.0892437 -0.34797 6.35167 -13.7455 0.918058 -16.5306 0.0 0.0 0.0 0.0 0.0 
2623.07 697.012 -545.869 163.592 -70.3598 167.229 -0.316612 -0.36086 -1.94417 -0.31454 -0.236441 -1.96318 -0.305088 0.191964 -1.96802 -0.310473 -0.121195 -1.97365 -16.2578 7.49169 8.16756 -16.1575 9.69846 10.2849 -0.0 0.0 -0.0 1.0235 19.9272 3.82798 17.4587 -28.1811 67.7767 3.08703 -56.8063 1.66966 -35.1151 -2.44727 3.68821 -2.65433 7.45815 -14.2851 -0.0 0.0 -0.0 0.896515 8.87953 -0.792826 -17.3695 13.1463 -70.7538 0.303709 8.55607 -0.0227189 49.2349 0.914585 6.03175 0.321063 -6.03828 -4.62422 0.0 0.0 0.0 -19.0304 19.5095 5.68105 3.16615 -0.143271 -0.464626 40.8429 8.08489 -4.93773 -14.1956 0.0 0.0 -0.0 0.0 -0.0 28.1816 29.5354 -11.8309 -0.593448 -0.0239808 -0.0879137 5.05268 -12.2613 0.731456 -16.3527 0.0 0.0 0.0 0.0 0.0 
